<?xml version="1.0" encoding="UTF-8"?><svg id="Calque_2" xmlns="http://www.w3.org/2000/svg" viewBox="0 0 512.76 94.4"><defs><style>.cls-1{fill:#fff;}.cls-2{fill:#ed7553;}</style></defs><g id="Calque_1-2"><path class="cls-1" d="m316,51.08c1.91,1.54,3.81,3.13,5.69,4.78,1.88,1.65,3.56,3.46,5.06,5.41,1.49,1.96,2.7,4.14,3.62,6.56.92,2.42,1.38,5.16,1.38,8.24,0,2.3-.44,4.47-1.33,6.51-.88,2.03-2.07,3.8-3.56,5.3-1.49,1.5-3.24,2.69-5.23,3.57-2,.88-4.14,1.32-6.44,1.32s-4.47-.44-6.49-1.32c-2.03-.88-3.79-2.07-5.29-3.57-1.49-1.49-2.68-3.26-3.56-5.29s-1.32-4.2-1.32-6.5h3.79c0,1.76.35,3.43,1.03,5,.69,1.57,1.61,2.93,2.76,4.08,1.15,1.15,2.51,2.07,4.08,2.76,1.57.69,3.24,1.04,5,1.04s3.41-.34,4.95-1.04c1.53-.69,2.87-1.61,4.03-2.76,1.15-1.15,2.07-2.51,2.76-4.08.69-1.57,1.04-3.24,1.04-5,0-2.61-.4-4.95-1.21-7.02-.8-2.07-1.88-3.97-3.22-5.69-1.34-1.72-2.88-3.33-4.6-4.83-1.72-1.49-3.51-2.97-5.35-4.43-1.84-1.45-3.66-2.97-5.46-4.54-1.8-1.57-3.41-3.28-4.83-5.12-1.42-1.84-2.57-3.87-3.45-6.1-.88-2.22-1.32-4.79-1.32-7.7,0-2.3.44-4.46,1.32-6.5.88-2.03,2.07-3.79,3.56-5.29,1.5-1.5,3.26-2.68,5.29-3.57,2.03-.88,4.19-1.32,6.49-1.32s4.45.43,6.44,1.28c1.99.86,3.74,2.03,5.23,3.51,1.49,1.48,2.68,3.24,3.56,5.27.88,2.03,1.33,4.2,1.33,6.5h-3.79c0-1.76-.35-3.41-1.04-4.94-.69-1.53-1.61-2.87-2.76-4.03-1.15-1.15-2.49-2.07-4.03-2.76-1.54-.69-3.18-1.04-4.95-1.04s-3.43.35-5,1.04c-1.57.69-2.93,1.61-4.08,2.76-1.15,1.15-2.07,2.5-2.76,4.03-.69,1.54-1.03,3.19-1.03,4.95,0,2.46.38,4.63,1.15,6.51.77,1.88,1.78,3.63,3.05,5.24,1.26,1.62,2.72,3.13,4.37,4.55,1.65,1.42,3.35,2.82,5.12,4.2Z"/><path class="cls-1" d="m384.54,14.46v61.52c0,2.3-.44,4.47-1.33,6.5-.88,2.03-2.07,3.79-3.56,5.29-1.49,1.49-3.24,2.68-5.23,3.56-2,.88-4.14,1.32-6.44,1.32s-4.47-.44-6.49-1.32c-2.03-.88-3.79-2.07-5.29-3.56-1.49-1.5-2.68-3.26-3.56-5.29-.88-2.03-1.32-4.2-1.32-6.5V14.46h3.79v61.52c0,1.76.35,3.43,1.03,5,.69,1.57,1.61,2.93,2.76,4.08,1.15,1.15,2.51,2.07,4.08,2.76,1.57.69,3.24,1.04,5,1.04s3.41-.34,4.95-1.04c1.53-.69,2.87-1.61,4.03-2.76,1.15-1.15,2.07-2.51,2.76-4.08.69-1.57,1.04-3.24,1.04-5V14.46h3.79Z"/><path class="cls-1" d="m421.56,51.08c1.91,1.54,3.81,3.13,5.69,4.78,1.88,1.65,3.56,3.46,5.06,5.41,1.49,1.96,2.7,4.14,3.62,6.56.92,2.42,1.38,5.16,1.38,8.24,0,2.3-.44,4.47-1.33,6.51-.88,2.03-2.07,3.8-3.56,5.3-1.49,1.5-3.24,2.69-5.23,3.57-2,.88-4.14,1.32-6.44,1.32s-4.47-.44-6.49-1.32c-2.03-.88-3.79-2.07-5.29-3.57-1.49-1.49-2.68-3.26-3.56-5.29s-1.32-4.2-1.32-6.5h3.79c0,1.76.35,3.43,1.03,5,.69,1.57,1.61,2.93,2.76,4.08s2.51,2.07,4.08,2.76c1.57.69,3.24,1.04,5,1.04s3.41-.34,4.95-1.04c1.53-.69,2.87-1.61,4.03-2.76,1.15-1.15,2.07-2.51,2.76-4.08.69-1.57,1.04-3.24,1.04-5,0-2.61-.4-4.95-1.21-7.02-.8-2.07-1.88-3.97-3.22-5.69s-2.88-3.33-4.6-4.83c-1.72-1.49-3.51-2.97-5.35-4.43-1.84-1.45-3.66-2.97-5.46-4.54-1.8-1.57-3.41-3.28-4.83-5.12-1.42-1.84-2.57-3.87-3.45-6.1-.88-2.22-1.32-4.79-1.32-7.7,0-2.3.44-4.46,1.32-6.5.88-2.03,2.07-3.79,3.56-5.29,1.5-1.5,3.26-2.68,5.29-3.57,2.03-.88,4.19-1.32,6.49-1.32s4.45.43,6.44,1.28c1.99.86,3.74,2.03,5.23,3.51,1.49,1.48,2.68,3.24,3.56,5.27.88,2.03,1.33,4.2,1.33,6.5h-3.79c0-1.76-.35-3.41-1.04-4.94-.69-1.53-1.61-2.87-2.76-4.03-1.15-1.15-2.49-2.07-4.03-2.76-1.54-.69-3.18-1.04-4.95-1.04s-3.43.35-5,1.04c-1.57.69-2.93,1.61-4.08,2.76-1.15,1.15-2.07,2.5-2.76,4.03-.69,1.54-1.03,3.19-1.03,4.95,0,2.46.38,4.63,1.15,6.51.77,1.88,1.78,3.63,3.05,5.24,1.26,1.62,2.72,3.13,4.37,4.55,1.65,1.42,3.35,2.82,5.12,4.2Z"/><path class="cls-1" d="m489.41,14.46v77.74h-3.79v-40.71h-24.95v40.71h-3.79V14.46h3.79v33.23h24.95V14.46h3.79Z"/><path class="cls-1" d="m508.96,92.2V14.46h3.79v77.74h-3.79Z"/><circle class="cls-2" cx="279.24" cy="56.29" r="7.61"/><polygon class="cls-1" points="39.79 15.59 30.27 15.59 12.9 49.02 8.47 49.02 8.47 15.59 0 15.59 0 93.86 8.47 93.86 8.47 57.49 12.9 57.49 31.9 93.86 41.42 93.86 20.28 53.2 39.79 15.59"/><path class="cls-1" d="m69.96,15.59h-6.31l-17.37,78.27h8.7l5.1-23.01h17.14l5.1,23.01h8.7L73.66,15.59h-3.69Zm-8.03,46.79l6.72-30.18,6.72,30.18h-13.44Z"/><path class="cls-1" d="m108.99,24.06h19.54v52.14c0,1.34-.25,2.57-.77,3.75-.52,1.2-1.23,2.25-2.09,3.11-.89.89-1.89,1.58-3.08,2.11-2.27,1.03-5.05,1.02-7.4-.01-1.21-.53-2.23-1.22-3.11-2.1-.88-.88-1.56-1.89-2.1-3.11-.52-1.18-.77-2.4-.77-3.74v-14.06h-8.47v14.06c0,2.5.49,4.89,1.45,7.1.95,2.19,2.26,4.13,3.88,5.75,1.63,1.62,3.56,2.93,5.75,3.88,2.22.96,4.61,1.45,7.1,1.45s4.87-.49,7.06-1.45c2.15-.95,4.05-2.25,5.68-3.87,1.62-1.62,2.93-3.56,3.87-5.75.97-2.22,1.45-4.61,1.45-7.11V15.59h-28v8.47Z"/><rect class="cls-1" x="150.56" y="15.59" width="8.47" height="78.27"/><path class="cls-1" d="m197.45,60.35c1.75-1.04,3.31-2.37,4.64-3.94,1.32-1.57,2.37-3.34,3.12-5.24.76-1.95,1.14-4.04,1.14-6.21v-11.4c0-2.49-.49-4.87-1.45-7.06-.95-2.16-2.25-4.07-3.85-5.68-1.62-1.63-3.55-2.92-5.76-3.84-2.2-.92-4.57-1.38-7.05-1.38h-15.65v78.27h8.47v-30.94h4.84l13.14,30.94h9.1l-13.6-32.12c1.02-.38,2-.84,2.92-1.39Zm-9.18-5.9h-7.22v-30.39h7.22c1.33,0,2.53.25,3.66.76,1.17.53,2.21,1.24,3.08,2.11.87.87,1.57,1.91,2.1,3.07.52,1.15.76,2.31.76,3.56v11.4c0,1.32-.25,2.52-.76,3.66-.53,1.17-1.24,2.21-2.1,3.07s-1.88,1.54-3.03,2.03c-1.15.49-2.37.73-3.72.73Z"/><path class="cls-1" d="m255.38,26.23c-.95-2.19-2.26-4.13-3.88-5.75-1.62-1.62-3.53-2.92-5.68-3.87-4.37-1.93-9.72-1.93-14.17,0-2.19.95-4.13,2.26-5.75,3.88-1.62,1.62-2.93,3.56-3.87,5.75-.97,2.22-1.45,4.61-1.45,7.11v42.88c0,2.5.49,4.89,1.45,7.1.95,2.19,2.26,4.13,3.88,5.75,1.63,1.62,3.56,2.93,5.75,3.88,2.22.96,4.61,1.45,7.1,1.45s4.87-.49,7.06-1.45c2.15-.95,4.05-2.25,5.68-3.87,1.62-1.62,2.93-3.56,3.87-5.75.97-2.22,1.45-4.61,1.45-7.11v-42.88c0-2.5-.49-4.89-1.45-7.1Zm-16.62-2.61c1.33,0,2.52.25,3.66.76,1.18.53,2.19,1.22,3.08,2.11.88.88,1.57,1.89,2.1,3.08.52,1.14.76,2.34.76,3.67v42.95c0,1.34-.25,2.57-.77,3.75-.52,1.2-1.23,2.25-2.09,3.11-.89.89-1.89,1.58-3.08,2.11-2.28,1.03-5.05,1.02-7.4-.01-1.19-.52-2.24-1.23-3.11-2.1-.86-.87-1.57-1.91-2.09-3.12-.52-1.18-.77-2.41-.77-3.75v-42.95c0-1.33.25-2.53.76-3.68.53-1.18,1.22-2.19,2.1-3.07.88-.88,1.9-1.57,3.11-2.1,1.18-.52,2.4-.77,3.74-.77Z"/><rect class="cls-1" x="220.57" width="36.26" height="8.47"/></g></svg>