<?xml version="1.0" encoding="UTF-8"?><svg id="Calque_2" xmlns="http://www.w3.org/2000/svg" viewBox="0 0 221.72 227.01"><defs><style>.cls-1{fill:#fff;}.cls-2{fill:#ed7553;}</style></defs><g id="Calque_1-2"><path class="cls-1" d="m24.46,187.48c1.81,1.46,3.61,2.97,5.4,4.53,1.78,1.57,3.38,3.28,4.8,5.14,1.42,1.86,2.56,3.93,3.43,6.22.87,2.29,1.31,4.9,1.31,7.81,0,2.19-.43,4.24-1.26,6.17-.84,1.93-1.96,3.6-3.38,5.02-1.42,1.42-3.08,2.55-4.96,3.39-1.89.83-3.93,1.25-6.11,1.25s-4.23-.42-6.16-1.25c-1.93-.83-3.6-1.96-5.02-3.38-1.42-1.42-2.55-3.09-3.38-5.02-.84-1.93-1.25-3.98-1.25-6.16h3.6c0,1.67.33,3.25.98,4.74.66,1.49,1.53,2.78,2.62,3.87,1.09,1.09,2.38,1.96,3.87,2.62,1.49.66,3.07.98,4.74.98s3.24-.33,4.7-.98c1.45-.66,2.72-1.53,3.82-2.62,1.09-1.09,1.96-2.38,2.61-3.87.66-1.49.99-3.07.99-4.74,0-2.47-.39-4.69-1.15-6.66-.76-1.96-1.78-3.76-3.06-5.4-1.27-1.63-2.73-3.16-4.36-4.58-1.64-1.42-3.33-2.81-5.07-4.2-1.74-1.38-3.47-2.82-5.18-4.31-1.71-1.49-3.23-3.11-4.58-4.85-1.35-1.75-2.44-3.67-3.28-5.78-.84-2.11-1.25-4.54-1.25-7.31,0-2.18.41-4.23,1.25-6.16.83-1.92,1.96-3.6,3.38-5.02,1.42-1.42,3.09-2.54,5.02-3.38,1.92-.83,3.98-1.25,6.16-1.25s4.22.41,6.11,1.22c1.89.81,3.55,1.92,4.96,3.32,1.42,1.41,2.54,3.08,3.38,5,.83,1.93,1.26,3.98,1.26,6.16h-3.6c0-1.67-.33-3.23-.99-4.69-.66-1.45-1.52-2.73-2.61-3.82-1.1-1.09-2.37-1.96-3.82-2.62-1.46-.65-3.02-.98-4.7-.98s-3.25.33-4.74.98c-1.49.66-2.78,1.53-3.87,2.62-1.09,1.09-1.96,2.37-2.62,3.82-.65,1.46-.98,3.02-.98,4.7,0,2.33.36,4.39,1.09,6.17.73,1.79,1.69,3.44,2.89,4.97,1.2,1.53,2.58,2.97,4.15,4.32,1.56,1.35,3.18,2.68,4.85,3.98"/><path class="cls-1" d="m89.46,152.75v58.34c0,2.18-.42,4.23-1.26,6.16-.83,1.93-1.96,3.6-3.38,5.02-1.42,1.42-3.07,2.55-4.96,3.38-1.89.84-3.93,1.25-6.11,1.25s-4.24-.42-6.16-1.25c-1.93-.83-3.6-1.96-5.02-3.38-1.41-1.42-2.54-3.09-3.38-5.02-.83-1.93-1.25-3.98-1.25-6.16v-58.34h3.6v58.34c0,1.67.33,3.25.98,4.74.66,1.49,1.53,2.78,2.62,3.87,1.09,1.09,2.38,1.96,3.87,2.62,1.49.65,3.07.98,4.74.98s3.23-.33,4.69-.98c1.46-.66,2.73-1.53,3.82-2.62,1.09-1.09,1.96-2.38,2.62-3.87.66-1.49.98-3.07.98-4.74v-58.34h3.6Z"/><path class="cls-1" d="m124.57,187.48c1.82,1.46,3.61,2.97,5.4,4.53,1.78,1.57,3.38,3.28,4.8,5.14,1.42,1.86,2.56,3.93,3.44,6.22.87,2.29,1.31,4.9,1.31,7.81,0,2.19-.42,4.24-1.26,6.17-.83,1.93-1.96,3.6-3.38,5.02-1.42,1.42-3.08,2.55-4.96,3.39-1.89.83-3.93,1.25-6.11,1.25s-4.23-.42-6.16-1.25c-1.93-.83-3.6-1.96-5.02-3.38-1.41-1.42-2.55-3.09-3.38-5.02-.84-1.93-1.25-3.98-1.25-6.16h3.6c0,1.67.33,3.25.98,4.74.66,1.49,1.53,2.78,2.62,3.87,1.09,1.09,2.38,1.96,3.87,2.62,1.49.66,3.07.98,4.74.98s3.24-.33,4.7-.98c1.45-.66,2.72-1.53,3.82-2.62,1.09-1.09,1.96-2.38,2.61-3.87.66-1.49.99-3.07.99-4.74,0-2.47-.39-4.69-1.15-6.66-.76-1.96-1.78-3.76-3.06-5.4-1.27-1.63-2.72-3.16-4.36-4.58-1.64-1.42-3.32-2.81-5.07-4.2-1.74-1.38-3.47-2.82-5.17-4.31-1.71-1.49-3.24-3.11-4.58-4.85-1.35-1.75-2.44-3.67-3.28-5.78-.84-2.11-1.25-4.54-1.25-7.31,0-2.18.41-4.23,1.25-6.16.83-1.92,1.97-3.6,3.38-5.02,1.42-1.42,3.09-2.54,5.02-3.38,1.92-.83,3.98-1.25,6.16-1.25s4.22.41,6.11,1.22c1.89.81,3.55,1.92,4.96,3.32,1.42,1.41,2.54,3.08,3.38,5,.84,1.93,1.26,3.98,1.26,6.16h-3.6c0-1.67-.33-3.23-.99-4.69-.65-1.45-1.52-2.73-2.61-3.82-1.1-1.09-2.37-1.96-3.82-2.62-1.46-.65-3.02-.98-4.7-.98s-3.25.33-4.74.98c-1.49.66-2.79,1.53-3.87,2.62-1.09,1.09-1.96,2.37-2.62,3.82-.65,1.46-.98,3.02-.98,4.7,0,2.33.37,4.39,1.09,6.17.73,1.79,1.69,3.44,2.89,4.97,1.2,1.53,2.58,2.97,4.15,4.32,1.56,1.35,3.18,2.68,4.85,3.98"/><polygon class="cls-1" points="188.91 152.75 188.91 184.26 188.91 187.87 188.91 226.47 185.3 226.47 185.3 187.87 161.64 187.87 161.64 226.47 158.04 226.47 158.04 152.75 161.64 152.75 161.64 184.26 185.3 184.26 185.3 152.75 188.91 152.75"/><rect class="cls-1" x="207.44" y="152.75" width="3.6" height="73.72"/><path class="cls-2" d="m121.77,121.25c0,6.49-5.26,11.74-11.75,11.74s-11.74-5.25-11.74-11.74,5.25-11.74,11.74-11.74,11.75,5.26,11.75,11.74"/><polygon class="cls-1" points="34.35 13.46 26.13 13.46 11.13 42.32 7.31 42.32 7.31 13.46 0 13.46 0 81.03 7.31 81.03 7.31 49.63 11.14 49.63 27.54 81.03 35.75 81.03 17.51 45.93 34.35 13.46"/><path class="cls-1" d="m53.47,53.85l5.8-26.05,5.8,26.05h-11.6Zm6.93-40.39h-5.44l-14.99,67.56h7.51l4.4-19.87h14.8l4.41,19.87h7.51L63.59,13.46h-3.19Z"/><path class="cls-1" d="m94.09,20.77h16.87v45.01c0,1.16-.22,2.22-.67,3.24-.46,1.03-1.06,1.94-1.81,2.69-.76.76-1.64,1.36-2.66,1.82-1.96.89-4.36.88-6.39-.01-1.05-.46-1.93-1.05-2.69-1.81-.76-.75-1.35-1.63-1.81-2.69-.44-1.01-.66-2.07-.66-3.23v-12.13h-7.31v12.13c0,2.16.42,4.22,1.25,6.14.82,1.89,1.95,3.56,3.35,4.97,1.4,1.4,3.07,2.53,4.97,3.35,1.91.83,3.98,1.25,6.13,1.25s4.21-.42,6.1-1.26c1.85-.82,3.5-1.94,4.91-3.34,1.4-1.4,2.53-3.07,3.34-4.96.84-1.91,1.26-3.98,1.26-6.14V13.46h-24.18v7.31Z"/><rect class="cls-1" x="129.97" y="13.46" width="7.31" height="67.56"/><path class="cls-1" d="m162.54,47.01h-6.23v-26.24h6.23c1.14,0,2.18.21,3.16.65,1.01.46,1.91,1.07,2.66,1.82.75.75,1.36,1.65,1.82,2.65.44.99.66,2,.66,3.07v9.84c0,1.14-.21,2.18-.66,3.16-.46,1.01-1.07,1.91-1.82,2.65-.74.74-1.62,1.33-2.62,1.75-.99.42-2.04.63-3.21.63m7.92,5.09c1.51-.9,2.85-2.04,4-3.41,1.14-1.36,2.05-2.88,2.69-4.52.66-1.68.99-3.49.99-5.36v-9.84c0-2.15-.42-4.2-1.26-6.1-.82-1.86-1.94-3.51-3.32-4.9-1.4-1.41-3.07-2.52-4.98-3.32-1.9-.79-3.94-1.19-6.08-1.19h-13.51v67.56h7.31v-26.71h4.18l11.34,26.71h7.86l-11.74-27.73c.88-.33,1.73-.73,2.52-1.2"/><path class="cls-1" d="m206.11,20.39c1.14,0,2.18.22,3.16.66,1.02.46,1.89,1.06,2.65,1.82.76.76,1.36,1.63,1.82,2.66.45.98.66,2.02.66,3.17v37.08c0,1.16-.22,2.22-.67,3.24-.45,1.03-1.06,1.94-1.81,2.69s-1.63,1.36-2.66,1.82c-1.97.89-4.36.88-6.39-.01-1.03-.45-1.93-1.06-2.69-1.81-.74-.75-1.35-1.65-1.81-2.69-.45-1.02-.67-2.08-.67-3.24V28.7c0-1.15.21-2.19.66-3.18.46-1.02,1.05-1.89,1.81-2.65.76-.76,1.64-1.36,2.69-1.81,1.02-.45,2.08-.67,3.23-.67m14.35,2.25c-.82-1.89-1.94-3.56-3.35-4.96-1.4-1.4-3.05-2.52-4.91-3.34-3.77-1.67-8.39-1.67-12.24,0-1.89.82-3.56,1.95-4.96,3.35-1.4,1.4-2.53,3.07-3.34,4.96-.84,1.91-1.26,3.98-1.26,6.14v37.01c0,2.16.42,4.22,1.25,6.14.82,1.89,1.95,3.56,3.35,4.97,1.4,1.4,3.07,2.53,4.97,3.35,1.91.83,3.98,1.25,6.13,1.25s4.21-.42,6.1-1.26c1.85-.82,3.5-1.94,4.91-3.34,1.4-1.4,2.53-3.07,3.34-4.96.84-1.91,1.26-3.98,1.26-6.14V28.78c0-2.16-.42-4.22-1.25-6.14"/><rect class="cls-1" x="190.42" width="31.3" height="7.31"/></g></svg>